<svg xmlns="http://www.w3.org/2000/svg" viewBox="0 0 640 400" fill="none">
  <rect width="640" height="400" fill="#0A0A0A"/>
  <defs>
    <linearGradient id="bcGrad" x1="0" y1="0" x2="0" y2="400">
      <stop offset="0%" stop-color="#111111"/>
      <stop offset="100%" stop-color="#050505"/>
    </linearGradient>
  </defs>
  <rect width="640" height="400" fill="url(#bcGrad)"/>
  <rect x="40" y="30" width="560" height="340" rx="8" fill="#111111" stroke="rgba(199,169,107,0.2)" stroke-width="1"/>
  <rect x="60" y="50" width="110" height="12" rx="2" fill="#C7A96B"/>
  <rect x="470" y="48" width="110" height="16" rx="3" fill="none" stroke="rgba(199,169,107,0.3)" stroke-width="1"/>
  <rect x="140" y="100" width="360" height="32" rx="4" fill="#FFFFFF" opacity="0.85"/>
  <rect x="200" y="148" width="240" height="14" rx="2" fill="#A0A0A0" opacity="0.45"/>
  <rect x="270" y="185" width="100" height="34" rx="4" fill="#C7A96B"/>
  <rect x="80" y="250" width="110" height="90" rx="6" fill="#0B0B0B" stroke="rgba(199,169,107,0.12)" stroke-width="1"/>
  <rect x="210" y="250" width="110" height="90" rx="6" fill="#0B0B0B" stroke="rgba(199,169,107,0.12)" stroke-width="1"/>
  <rect x="340" y="250" width="110" height="90" rx="6" fill="#0B0B0B" stroke="rgba(199,169,107,0.12)" stroke-width="1"/>
  <rect x="470" y="250" width="110" height="90" rx="6" fill="#0B0B0B" stroke="rgba(199,169,107,0.12)" stroke-width="1"/>
  <rect x="95" y="270" width="80" height="50" rx="3" fill="rgba(199,169,107,0.1)"/>
  <rect x="225" y="270" width="80" height="50" rx="3" fill="rgba(199,169,107,0.1)"/>
  <rect x="355" y="270" width="80" height="50" rx="3" fill="rgba(199,169,107,0.1)"/>
  <rect x="485" y="270" width="80" height="50" rx="3" fill="rgba(199,169,107,0.1)"/>
</svg>
