<svg xmlns="http://www.w3.org/2000/svg" viewBox="0 0 640 400" fill="none">
  <rect width="640" height="400" fill="#0A0A0A"/>
  <defs>
    <linearGradient id="cnGrad" x1="0" y1="0" x2="0" y2="400">
      <stop offset="0%" stop-color="#111111"/>
      <stop offset="100%" stop-color="#050505"/>
    </linearGradient>
    <radialGradient id="cnGlow" cx="50%" cy="30%"><stop offset="0%" stop-color="#C7A96B" stop-opacity="0.12"/><stop offset="100%" stop-color="#C7A96B" stop-opacity="0"/></radialGradient>
  </defs>
  <rect width="640" height="400" fill="url(#cnGrad)"/>
  <rect width="640" height="400" fill="url(#cnGlow)"/>
  <rect x="40" y="30" width="560" height="340" rx="8" fill="#111111" stroke="rgba(199,169,107,0.2)" stroke-width="1"/>
  <circle cx="80" cy="58" r="14" fill="#C7A96B" opacity="0.6"/>
  <rect x="104" y="52" width="70" height="12" rx="2" fill="#FFFFFF" opacity="0.7"/>
  <rect x="460" y="50" width="60" height="16" rx="3" fill="none" stroke="rgba(199,169,107,0.3)" stroke-width="1"/>
  <rect x="530" y="50" width="50" height="16" rx="3" fill="#C7A96B"/>
  <rect x="100" y="110" width="440" height="28" rx="4" fill="#FFFFFF" opacity="0.9"/>
  <rect x="180" y="152" width="280" height="14" rx="2" fill="#A0A0A0" opacity="0.5"/>
  <rect x="240" y="190" width="160" height="36" rx="4" fill="#C7A96B"/>
  <rect x="80" y="260" width="150" height="80" rx="6" fill="#0B0B0B" stroke="rgba(199,169,107,0.15)" stroke-width="1"/>
  <rect x="95" y="275" width="40" height="40" rx="20" fill="rgba(199,169,107,0.2)"/>
  <rect x="95" y="325" width="80" height="8" rx="2" fill="#A0A0A0" opacity="0.4"/>
  <rect x="250" y="260" width="150" height="80" rx="6" fill="#0B0B0B" stroke="rgba(199,169,107,0.15)" stroke-width="1"/>
  <rect x="265" y="275" width="40" height="40" rx="20" fill="rgba(199,169,107,0.2)"/>
  <rect x="265" y="325" width="80" height="8" rx="2" fill="#A0A0A0" opacity="0.4"/>
  <rect x="420" y="260" width="150" height="80" rx="6" fill="#0B0B0B" stroke="rgba(199,169,107,0.15)" stroke-width="1"/>
  <rect x="435" y="275" width="40" height="40" rx="20" fill="rgba(199,169,107,0.2)"/>
  <rect x="435" y="325" width="80" height="8" rx="2" fill="#A0A0A0" opacity="0.4"/>
</svg>
