<svg xmlns="http://www.w3.org/2000/svg" viewBox="0 0 640 400" fill="none">
  <rect width="640" height="400" fill="#060A0C"/>
  <defs>
    <linearGradient id="medBg" x1="0" y1="0" x2="640" y2="400">
      <stop offset="0%" stop-color="#0A1014"/>
      <stop offset="100%" stop-color="#0B0B0B"/>
    </linearGradient>
    <radialGradient id="medBlue" cx="30%" cy="30%"><stop offset="0%" stop-color="#C7A96B" stop-opacity="0.1"/><stop offset="100%" stop-color="#C7A96B" stop-opacity="0"/></radialGradient>
  </defs>
  <rect width="640" height="400" fill="url(#medBg)"/>
  <rect width="640" height="400" fill="url(#medBlue)"/>
  <rect x="40" y="30" width="560" height="340" rx="8" fill="#111111" stroke="rgba(199,169,107,0.2)" stroke-width="1"/>
  <rect x="60" y="50" width="80" height="12" rx="2" fill="#C7A96B"/>
  <circle cx="540" cy="56" r="12" fill="rgba(199,169,107,0.15)" stroke="rgba(199,169,107,0.3)" stroke-width="1"/>
  <rect x="100" y="100" width="300" height="28" rx="3" fill="#FFFFFF" opacity="0.85"/>
  <rect x="100" y="140" width="240" height="12" rx="2" fill="#A0A0A0" opacity="0.45"/>
  <rect x="100" y="175" width="110" height="32" rx="4" fill="#C7A96B"/>
  <rect x="420" y="90" width="160" height="200" rx="8" fill="#0B0B0B" stroke="rgba(199,169,107,0.15)" stroke-width="1"/>
  <rect x="440" y="110" width="120" height="80" rx="40" fill="rgba(199,169,107,0.08)"/>
  <rect x="80" y="260" width="160" height="80" rx="6" fill="#0B0B0B" stroke="rgba(199,169,107,0.1)" stroke-width="1"/>
  <rect x="260" y="260" width="160" height="80" rx="6" fill="#0B0B0B" stroke="rgba(199,169,107,0.1)" stroke-width="1"/>
</svg>
