<svg xmlns="http://www.w3.org/2000/svg" viewBox="0 0 640 400" fill="none">
  <rect width="640" height="400" fill="#050505"/>
  <defs>
    <radialGradient id="novaGlow" cx="60%" cy="30%"><stop offset="0%" stop-color="#E2C48A" stop-opacity="0.15"/><stop offset="100%" stop-color="#050505" stop-opacity="0"/></radialGradient>
  </defs>
  <rect width="640" height="400" fill="url(#novaGlow)"/>
  <rect x="40" y="30" width="560" height="340" rx="8" fill="#111111" stroke="rgba(199,169,107,0.25)" stroke-width="1"/>
  <rect x="60" y="50" width="70" height="10" rx="2" fill="#C7A96B"/>
  <rect x="500" y="48" width="80" height="16" rx="3" fill="#C7A96B" opacity="0.7"/>
  <rect x="80" y="110" width="260" height="26" rx="3" fill="#FFFFFF" opacity="0.9"/>
  <rect x="80" y="148" width="200" height="12" rx="2" fill="#A0A0A0" opacity="0.4"/>
  <rect x="80" y="180" width="90" height="30" rx="3" fill="#C7A96B"/>
  <rect x="360" y="90" width="220" height="240" rx="6" fill="#0B0B0B" stroke="rgba(199,169,107,0.2)" stroke-width="1"/>
  <rect x="380" y="110" width="180" height="100" rx="4" fill="rgba(199,169,107,0.06)"/>
  <rect x="380" y="230" width="80" height="8" rx="2" fill="#A0A0A0" opacity="0.3"/>
  <rect x="380" y="248" width="120" height="8" rx="2" fill="#A0A0A0" opacity="0.2"/>
  <rect x="80" y="260" width="250" height="80" rx="6" fill="#0B0B0B" stroke="rgba(199,169,107,0.12)" stroke-width="1"/>
</svg>
